<svg width="16" height="10" viewBox="0 0 16 10" fill="none" xmlns="http://www.w3.org/2000/svg">
<g clip-path="url(#clip0_212_1597)">
<path d="M14.6889 1.19016C14.6889 1.20145 14.6889 1.21556 14.686 1.22403C14.6713 1.3341 14.6713 1.44417 14.6801 1.55707C14.686 1.58529 14.6918 1.61351 14.7154 1.63609C14.7536 1.67842 14.8124 1.66996 14.8359 1.61916C14.8477 1.59376 14.8477 1.56835 14.8418 1.54295C14.8124 1.4357 14.8065 1.32281 14.8036 1.21274C14.8036 1.2071 14.8036 1.19863 14.8036 1.19016C14.8359 1.18734 14.8654 1.18452 14.8918 1.18452C14.9124 1.1817 14.9301 1.17887 14.9448 1.17041C14.9888 1.14783 14.9888 1.09985 14.9418 1.07727C14.9242 1.0688 14.9006 1.06598 14.8801 1.06598C14.8065 1.0688 14.733 1.0688 14.6595 1.0688C14.6331 1.0688 14.6066 1.07163 14.5801 1.07445C14.5654 1.07727 14.5478 1.07727 14.536 1.08574C14.5154 1.0942 14.5037 1.10831 14.5037 1.12807C14.5066 1.14783 14.5154 1.15912 14.536 1.16758C14.5478 1.17605 14.5625 1.17887 14.5772 1.17887C14.6124 1.1817 14.6507 1.18734 14.6889 1.19016ZM15.4976 1.31999C15.4976 1.32281 15.5005 1.32563 15.5005 1.32563C15.5123 1.40184 15.5241 1.47522 15.5329 1.5486C15.5358 1.574 15.5388 1.59658 15.5564 1.61633C15.5946 1.66431 15.6534 1.65867 15.6799 1.60787C15.6917 1.58247 15.6946 1.55707 15.6887 1.52884C15.6711 1.44417 15.6622 1.3595 15.6446 1.27765C15.6328 1.22685 15.6182 1.17887 15.6034 1.13372C15.5946 1.10549 15.574 1.08573 15.5388 1.08291C15.5035 1.07727 15.477 1.0942 15.4623 1.1196C15.4446 1.14218 15.4299 1.16476 15.4182 1.19016C15.3976 1.23532 15.38 1.28048 15.3564 1.32281C15.3535 1.3341 15.3505 1.34257 15.3447 1.35103C15.3417 1.34539 15.3388 1.34257 15.3388 1.34257C15.3006 1.27201 15.2653 1.20145 15.2271 1.13372C15.2212 1.12807 15.2182 1.12243 15.2153 1.11678C15.1976 1.09138 15.1771 1.07727 15.1447 1.07727C15.1153 1.08009 15.0918 1.09703 15.0771 1.12243C15.0712 1.13372 15.0712 1.14218 15.0683 1.15347C15.0565 1.24379 15.0418 1.3341 15.03 1.42442C15.0241 1.47522 15.0212 1.52602 15.0212 1.57682C15.0183 1.58811 15.0212 1.60222 15.0271 1.61351C15.033 1.63609 15.0506 1.6502 15.0741 1.65302C15.1035 1.65585 15.1241 1.64738 15.1329 1.6248C15.1418 1.60787 15.1447 1.59376 15.1476 1.57964C15.1594 1.52884 15.1682 1.48086 15.1771 1.43288C15.1829 1.40466 15.1859 1.38208 15.1947 1.35103C15.2006 1.36232 15.2064 1.37079 15.2123 1.37926C15.2388 1.41313 15.2653 1.44699 15.2976 1.47522C15.33 1.4978 15.3564 1.49497 15.3829 1.46957C15.3888 1.46393 15.3917 1.46111 15.3976 1.45546C15.4241 1.41595 15.4564 1.37644 15.4829 1.33692C15.4888 1.33128 15.4917 1.32563 15.4976 1.31999Z" fill="#3A3B7B"/>
<path d="M8.72205 1.24557C8.70161 1.29921 8.69771 1.33785 8.70715 1.36997C8.71757 1.41365 8.74463 1.42794 8.78134 1.41684C9.12674 1.33486 9.88414 1.56754 10.1645 1.63239C10.2307 1.64601 10.2845 1.56407 10.2394 1.49061C10.1735 1.41947 9.41643 1.11489 9.12757 1.09828C9.01434 1.09214 8.81192 1.06427 8.72205 1.24557Z" fill="#3A3B7B"/>
<path d="M11.6822 0.259599C11.719 0.279991 11.7396 0.299443 11.7497 0.321178C11.7648 0.349687 11.7569 0.369412 11.7314 0.379477C11.5031 0.486425 11.1993 0.946857 11.0767 1.10565C11.0469 1.14218 10.9784 1.12096 10.968 1.06088C10.9701 0.992959 11.2395 0.493289 11.3898 0.357195C11.4488 0.30406 11.5464 0.199803 11.6822 0.259599Z" fill="#3A3B7B"/>
<path d="M9.86389 0.0329624C9.90812 0.000972367 9.95407 -0.0102379 9.97754 0.0105516C10.322 0.293303 10.5047 0.741064 10.6178 1.15098C10.6221 1.16053 10.6223 1.17423 10.6189 1.18853C10.6175 1.20075 10.6082 1.21366 10.5934 1.22365C10.5777 1.23467 10.5641 1.23803 10.5577 1.22853C10.4067 1.03144 9.54441 0.264591 9.86389 0.0329624Z" fill="#3A3B7B"/>
<path d="M2.56918 4.93515C2.65175 4.87616 2.7415 4.82704 2.83648 4.78893C2.93586 4.76167 3.04177 4.76618 3.13823 4.80182C3.23467 4.83747 3.31642 4.90228 3.37108 4.98647C3.41997 5.07044 3.43909 5.16739 3.42559 5.26272C3.4121 5.35802 3.36671 5.44654 3.29623 5.51496C3.2416 5.57041 3.17957 5.61871 3.1118 5.65863C2.80976 5.84591 2.50503 6.02292 2.20031 6.2102C2.13796 6.25707 2.07181 6.29912 2.00251 6.33591C1.89709 6.38637 1.77661 6.39988 1.66191 6.37411C1.5472 6.34837 1.44549 6.28493 1.37435 6.19482C1.32117 6.131 1.27629 6.06123 1.2407 5.98701C0.952019 5.40465 0.652646 4.82484 0.374653 4.23221C0.246349 3.97567 0.142103 3.68063 0.040529 3.39587C-0.00341645 3.31313 -0.011998 3.21721 0.0166116 3.12849C0.0452213 3.03976 0.108765 2.96526 0.193726 2.92081C0.278687 2.87636 0.378361 2.86549 0.471552 2.89048C0.564743 2.91548 0.644098 2.97439 0.692738 3.05466C0.842247 3.24536 0.974593 3.44791 1.08834 3.66013C1.37703 4.17321 1.65235 4.6863 1.93034 5.184C1.94652 5.21151 1.96437 5.23805 1.9838 5.26353C2.19303 5.1791 2.38983 5.0687 2.56918 4.93515Z" fill="#3A3B7B"/>
<path d="M5.55396 4.75616C4.89374 5.49757 3.78711 5.31029 3.23113 4.35594C2.83552 3.67865 2.76603 2.5601 3.62674 1.8546C3.81054 1.70689 4.03031 1.60628 4.26558 1.56213C4.55404 1.52244 4.84819 1.57128 5.10598 1.70168C5.36377 1.83208 5.57203 2.03735 5.70099 2.28817C6.17143 3.10912 6.1046 4.15583 5.55396 4.75616ZM5.28666 3.02702C5.21652 2.82528 5.07581 2.65305 4.88838 2.53957C4.78233 2.46702 4.65345 2.43175 4.52348 2.43969C4.39349 2.44763 4.27033 2.49831 4.1747 2.58318C3.79247 2.90901 3.71226 3.68123 3.99025 4.14044C4.0257 4.21533 4.07772 4.28187 4.14276 4.33543C4.20779 4.38899 4.28423 4.42827 4.36672 4.45049C4.44921 4.47274 4.53577 4.47741 4.62034 4.46418C4.70492 4.45093 4.78544 4.42013 4.85633 4.37389C5.06352 4.21971 5.21553 4.0074 5.29121 3.76649C5.36691 3.52556 5.36252 3.268 5.27866 3.0296L5.28666 3.02702Z" fill="#3A3B7B"/>
<path d="M8.24839 3.35028C8.1808 3.36423 8.11097 3.36507 8.04303 3.35272C7.9751 3.34038 7.91041 3.31514 7.8528 3.27845C7.80238 3.25077 7.75898 3.21273 7.72572 3.16702C7.69247 3.12132 7.67019 3.06912 7.66048 3.01415C7.65076 2.95921 7.65387 2.90288 7.66954 2.84921C7.68523 2.79554 7.71314 2.74587 7.75123 2.70378C7.81758 2.61919 7.91178 2.55863 8.01852 2.5319C8.29723 2.45426 8.58414 2.40693 8.87388 2.3908C8.93754 2.38369 9.00204 2.38886 9.06357 2.40601C9.12513 2.42317 9.18247 2.45193 9.23228 2.49066C9.28207 2.52937 9.32331 2.57725 9.35358 2.63147C9.38382 2.68569 9.40249 2.74517 9.40848 2.80641C9.492 3.10721 9.50115 3.42261 9.4352 3.72742C9.19464 4.71255 8.36601 5.05119 7.4358 4.73564C7.17469 4.65127 6.94575 4.49407 6.77825 4.28412C6.55485 4.03128 6.39645 3.73164 6.31582 3.40929C6.25049 3.12224 6.25764 2.82438 6.33671 2.54054C6.41575 2.2567 6.5644 1.99512 6.77023 1.77765C6.96557 1.54128 7.2191 1.35526 7.50798 1.23633C7.69052 1.13976 7.90413 1.1123 8.10674 1.15937C8.15269 1.17157 8.19441 1.19536 8.22756 1.22826C8.26072 1.26116 8.2841 1.30198 8.29528 1.34647C8.30647 1.39096 8.30503 1.43752 8.29116 1.48131C8.27726 1.5251 8.25144 1.56452 8.21633 1.5955C8.14957 1.65349 8.07705 1.70505 7.99981 1.74943C7.76217 1.89467 7.55537 2.08184 7.39036 2.301C7.2822 2.44282 7.20771 2.60568 7.17216 2.77809C7.13658 2.95049 7.14082 3.12829 7.18455 3.29898C7.24517 3.53171 7.37969 3.7406 7.56945 3.89672C8.15751 4.40983 8.92199 3.91468 8.78834 3.21431C8.59322 3.2605 8.42214 3.30924 8.24839 3.35028Z" fill="#3A3B7B"/>
<path d="M11.8408 4.79721C10.9721 5.31032 9.98312 4.79721 9.7666 3.71972C9.60889 2.95008 9.90827 1.87257 10.9561 1.4621C11.179 1.37664 11.4208 1.34664 11.6591 1.37487C11.9453 1.42516 12.2079 1.56041 12.4098 1.76155C12.6117 1.96269 12.7427 2.21956 12.7844 2.49599C12.9608 3.41185 12.5599 4.3893 11.8408 4.79721ZM12.1429 3.07064C12.1426 2.85753 12.0641 2.6513 11.921 2.48828C11.8446 2.38746 11.734 2.31522 11.6083 2.28386C11.4825 2.25252 11.3493 2.26401 11.2314 2.3164C10.761 2.51137 10.4295 3.21944 10.5498 3.74025C10.559 3.82198 10.5866 3.9008 10.6309 3.97119C10.6751 4.04158 10.7348 4.10186 10.8059 4.1478C10.8769 4.19373 10.9575 4.22422 11.0421 4.23714C11.1267 4.25004 11.2132 4.24506 11.2956 4.22255C11.5442 4.13918 11.7595 3.98336 11.9114 3.77684C12.0633 3.57033 12.1443 3.32343 12.1429 3.07064Z" fill="#3A3B7B"/>
<path d="M13.663 5.01273C13.6499 5.10662 13.5985 5.19167 13.52 5.24917C13.4416 5.30665 13.3425 5.33189 13.2447 5.3193C13.1469 5.30671 13.0583 5.25733 12.9984 5.18203C12.9385 5.10675 12.9122 5.01169 12.9253 4.9178C12.9384 4.8239 12.9899 4.73886 13.0683 4.68136C13.1468 4.62386 13.2458 4.59864 13.3436 4.61123C13.4414 4.62381 13.5301 4.67317 13.59 4.74847C13.6499 4.82377 13.6762 4.91883 13.663 5.01273ZM13.4305 1.55189C13.4813 1.47737 13.5559 1.42062 13.6431 1.39011C13.7303 1.35959 13.8254 1.35695 13.9143 1.38257C14.0047 1.40427 14.0845 1.4551 14.1405 1.52656C14.1964 1.59801 14.2251 1.68575 14.2217 1.77508C14.2099 1.91837 14.1876 2.06069 14.1549 2.20095C14.0667 2.67557 13.9811 3.15017 13.8876 3.61967C13.8448 3.80695 13.7887 3.98653 13.7272 4.17637C13.7058 4.23571 13.6701 4.28934 13.623 4.33287C13.5937 4.36561 13.5562 4.39072 13.5141 4.40588C13.472 4.42106 13.4266 4.42579 13.3822 4.41965C13.3377 4.41351 13.2955 4.3967 13.2595 4.37078C13.2236 4.34484 13.1951 4.31062 13.1766 4.2713C13.1448 4.20075 13.1275 4.12494 13.1258 4.0481C13.1258 3.72998 13.1258 3.4093 13.1472 3.0886C13.1835 2.63095 13.255 2.17647 13.361 1.7289C13.3735 1.66894 13.397 1.6116 13.4305 1.55958V1.55189Z" fill="#3A3B7B"/>
<path fill-rule="evenodd" clip-rule="evenodd" d="M1.43983 7.07432C1.40827 7.14194 1.39962 7.21733 1.41504 7.28988C1.4253 7.38551 1.44784 7.47958 1.48213 7.56994C1.52495 7.68058 1.57287 7.78998 1.63195 7.92483C1.64554 7.95586 1.65974 7.98825 1.6746 8.02233C1.75427 8.20502 1.85424 8.43849 1.98758 8.77637C2.02533 8.87236 2.05884 8.96914 2.09259 9.06657C2.10623 9.10594 2.11991 9.14544 2.13392 9.18502C2.18412 9.32577 2.27051 9.45221 2.38501 9.55242C2.43363 9.6075 2.49813 9.64763 2.57044 9.6677C2.64417 9.68817 2.72259 9.68687 2.79553 9.66398C2.86847 9.64108 2.93254 9.59764 2.97941 9.5393C3.02537 9.48211 3.05269 9.41319 3.05801 9.34119C3.08782 9.20093 3.07764 9.0555 3.02851 8.92028C2.95052 8.69577 2.86168 8.47092 2.75924 8.25101L2.75877 8.25004C2.59024 7.90597 2.41893 7.56428 2.23951 7.22246L2.23817 7.22006C2.18565 7.13101 2.11739 7.05139 2.03647 6.98481C1.98393 6.92537 1.91146 6.88528 1.83144 6.87146C1.7497 6.85735 1.66541 6.87157 1.5936 6.91159C1.52567 6.94883 1.47182 7.0058 1.43983 7.07432Z" fill="#3A3B7B"/>
<path fill-rule="evenodd" clip-rule="evenodd" d="M4.01384 6.22709C3.74959 6.1614 3.47362 6.15183 3.20516 6.19905C2.99722 6.2187 2.79271 6.26474 2.6507 6.35593C2.57848 6.40233 2.52008 6.46192 2.4876 6.53766C2.45494 6.61382 2.45077 6.70092 2.47753 6.79796C2.5264 6.97571 2.58986 7.14854 2.6531 7.32082L2.66334 7.34872L2.66359 7.34933C2.854 7.84981 3.04622 8.3486 3.2402 8.84566C3.26281 8.924 3.2948 8.99956 3.33551 9.07084L3.33627 9.07216C3.39005 9.16071 3.45903 9.2399 3.54029 9.30642C3.58093 9.34299 3.63119 9.3683 3.68568 9.37961C3.74072 9.39101 3.79795 9.38771 3.85114 9.37002C3.90436 9.35235 3.95148 9.32099 3.98739 9.27936C4.02272 9.2384 4.04585 9.18907 4.05435 9.13657C4.08941 8.99393 4.07818 8.84441 4.02214 8.70807C4.00465 8.66219 3.99093 8.61529 3.97647 8.56594C3.97165 8.54948 3.96677 8.53273 3.96161 8.51568C4.40562 8.3491 4.87805 8.12511 5.04418 7.60404C5.10924 7.42397 5.11466 7.22899 5.0597 7.04582C5.00469 6.86245 4.89182 6.69993 4.73665 6.58062C4.52546 6.4136 4.27876 6.29293 4.01384 6.22709ZM3.28137 6.86622C3.29012 6.8638 3.29893 6.86155 3.30776 6.85946C3.59682 6.81585 3.89257 6.87396 4.14054 7.02307C4.24982 7.09601 4.29459 7.17706 4.30228 7.25504C4.31021 7.33534 4.27979 7.42235 4.21869 7.50599C4.10322 7.66398 3.8925 7.79044 3.70216 7.81401C3.5634 7.50731 3.42249 7.18819 3.28137 6.86622Z" fill="#3A3B7B"/>
<path d="M5.77561 5.66571C6.0903 5.52623 6.48011 5.50213 6.78513 5.60021C6.86195 5.62168 6.9286 5.66813 6.97368 5.73162C7.01847 5.79471 7.03913 5.87073 7.03223 5.94674C7.03178 5.99607 7.01916 6.04462 6.99542 6.0884C6.97126 6.13299 6.93626 6.17132 6.8934 6.20019C6.85054 6.22904 6.80107 6.24759 6.74917 6.25421C6.69726 6.26086 6.64446 6.2554 6.59522 6.2383L6.59147 6.237L6.58795 6.23522C6.56276 6.22257 6.53599 6.21304 6.50831 6.20684L6.50656 6.20646C6.29198 6.15176 6.08958 6.24239 6.01565 6.35376C5.98039 6.40686 5.97602 6.46046 6.00539 6.50923C6.03684 6.56144 6.11397 6.62004 6.27006 6.66181C6.31299 6.67312 6.35699 6.68403 6.40162 6.69512C6.52505 6.7258 6.65332 6.75766 6.77735 6.80182L6.77782 6.802C7.35003 7.01096 7.5631 7.44373 7.49016 7.85077C7.418 8.25331 7.06774 8.61964 6.54101 8.70606C6.34935 8.74683 6.14988 8.73889 5.96237 8.68302C5.77438 8.62697 5.60493 8.52471 5.47086 8.38635L5.46736 8.38274C5.42504 8.33061 5.39657 8.26937 5.38395 8.20439C5.37234 8.14575 5.37846 8.08515 5.40155 8.02972C5.4245 7.97462 5.46333 7.92693 5.51343 7.89219C5.56635 7.8528 5.63015 7.82916 5.69693 7.82423C5.76349 7.81933 5.83009 7.83321 5.88853 7.86415C5.9469 7.89122 6.00119 7.92574 6.04993 7.9668L6.05085 7.96755C6.13706 8.04323 6.24137 8.06294 6.34139 8.04468C6.44287 8.02615 6.5383 7.96852 6.59968 7.89205C6.66065 7.81607 6.68513 7.72581 6.65608 7.63818C6.62685 7.54992 6.53895 7.45103 6.34583 7.36836C6.29535 7.34779 6.243 7.33119 6.18855 7.31504C6.17387 7.31069 6.15894 7.30635 6.14383 7.30195C6.10357 7.29022 6.06215 7.27814 6.02153 7.26483C5.99355 7.25567 5.9658 7.247 5.93831 7.2384C5.8632 7.21492 5.78996 7.19204 5.71948 7.16134C5.56608 7.11121 5.43356 7.01496 5.34163 6.88683C5.24931 6.75819 5.20287 6.60435 5.20919 6.44829C5.20968 6.06798 5.45925 5.80597 5.77561 5.66571Z" fill="#3A3B7B"/>
<path d="M9.76523 5.62518C9.70421 5.59657 9.63673 5.58299 9.5689 5.58566C9.50104 5.58834 9.43496 5.60718 9.37661 5.64051C9.31862 5.67361 9.27006 5.71995 9.23527 5.77542C9.20337 5.82214 9.18129 5.87438 9.17028 5.92924C9.15928 5.98405 9.15955 6.04039 9.17105 6.09507C9.18241 6.16535 9.19501 6.2337 9.20745 6.3011C9.22805 6.41264 9.24809 6.52168 9.26132 6.63284L9.26181 6.63566C9.29192 6.81 9.30768 6.98633 9.30909 7.16303L9.30922 7.16554C9.31951 7.35636 9.25177 7.54347 9.12052 7.68716L9.11843 7.68971C9.07573 7.74224 9.01863 7.78233 8.95351 7.8055C8.88842 7.82867 8.81789 7.834 8.74981 7.82088C8.68173 7.80777 8.61881 7.77674 8.56806 7.73126C8.51731 7.68578 8.4807 7.62746 8.46243 7.56319C8.42343 7.4277 8.40085 7.28835 8.39511 7.14791L8.46174 6.1299C8.46272 6.11661 8.46384 6.10297 8.46499 6.08919C8.46752 6.05828 8.47012 6.02679 8.4712 5.99741C8.47276 5.95419 8.47142 5.90974 8.46093 5.86767C8.45019 5.82467 8.42977 5.78376 8.39354 5.74893C8.35768 5.71445 8.30926 5.68901 8.24833 5.67169C8.13815 5.64109 8.04499 5.64205 7.96736 5.67367C7.88968 5.7053 7.83646 5.764 7.7988 5.83182C7.76144 5.89907 7.73743 5.97868 7.71927 6.05843C7.7058 6.1176 7.69497 6.17972 7.68468 6.23885C7.68112 6.25922 7.67764 6.27923 7.67412 6.29866L7.67403 6.29923C7.61898 6.62349 7.60259 6.95273 7.62519 7.28056C7.6294 7.45772 7.66789 7.63259 7.73873 7.79624C7.81864 8.0074 7.96339 8.19035 8.15386 8.32094C8.34474 8.45181 8.57252 8.52392 8.80704 8.52772C9.04157 8.53153 9.27177 8.46686 9.46715 8.34229C9.66222 8.2179 9.8134 8.03961 9.90069 7.83103C10.0228 7.56532 10.0801 7.27635 10.0683 6.98615C10.0611 6.77429 10.0491 6.5608 10.0372 6.34839C10.0313 6.24419 10.0254 6.14022 10.0202 6.03689C10.0175 5.93327 9.98195 5.8329 9.91815 5.74926C9.87868 5.69638 9.82613 5.65374 9.76523 5.62518Z" fill="#3A3B7B"/>
<path d="M11.9248 7.22142C11.9186 7.22897 11.9121 7.23678 11.9053 7.2449C11.8557 6.9701 11.8097 6.6954 11.7636 6.42027C11.7471 6.32156 11.7305 6.22242 11.7138 6.12358L11.7119 6.11255L11.7058 6.10303C11.6943 6.08509 11.6931 6.06751 11.6931 6.03001V6.02568L11.6924 6.02139C11.68 5.94395 11.6435 5.87189 11.5877 5.81463C11.5321 5.75753 11.4599 5.71779 11.3805 5.70054C11.3012 5.68177 11.2179 5.6859 11.141 5.71244C11.0644 5.73891 10.9975 5.78649 10.9489 5.8492C10.9085 5.89732 10.8753 5.95071 10.8505 6.00774C10.7941 6.13062 10.7372 6.2538 10.6802 6.37732L10.6792 6.37945C10.5368 6.6878 10.3935 6.99823 10.2543 7.31109L10.2539 7.3121C10.1685 7.51497 10.098 7.72872 10.0277 7.94182C10.0136 7.98435 9.99961 8.02686 9.98547 8.06927C9.96009 8.13651 9.949 8.20794 9.95281 8.27935C9.94819 8.34327 9.96413 8.40704 9.99852 8.46203C10.0336 8.51814 10.0861 8.56229 10.1487 8.58827C10.215 8.61618 10.2891 8.6221 10.3593 8.60511C10.4294 8.58814 10.4916 8.54933 10.5362 8.49475C10.5932 8.42753 10.6421 8.35421 10.6821 8.27653C10.8 8.04509 10.9126 7.81082 11.0248 7.57757C11.0682 7.48735 11.1104 7.40655 11.1583 7.31855C11.1616 7.3294 11.165 7.33998 11.1685 7.35059C11.2187 7.56305 11.3036 7.76655 11.4199 7.95363C11.442 7.99326 11.4726 8.0279 11.5098 8.05516C11.5475 8.08276 11.591 8.10212 11.6372 8.11196C11.6834 8.12179 11.7314 8.12184 11.7776 8.11209C11.8238 8.10236 11.8674 8.08298 11.9051 8.05552L11.9797 8.00193L12.5586 7.53396L12.5243 7.74333C12.4774 8.03113 12.4307 8.31654 12.3812 8.60201C12.3488 8.72853 12.3488 8.86069 12.3813 8.98718C12.3954 9.05836 12.4313 9.12389 12.4844 9.17543C12.5379 9.22738 12.6064 9.26268 12.6811 9.27676C12.7558 9.29082 12.8332 9.28303 12.9032 9.25436C12.9722 9.22613 13.0309 9.17891 13.0719 9.11872C13.1674 9.00507 13.2268 8.86747 13.2431 8.72231C13.2677 8.51731 13.2954 8.30952 13.3232 8.10179C13.3552 7.86236 13.3872 7.62299 13.4142 7.38822L13.4143 7.38749C13.4403 7.1305 13.4528 6.87245 13.452 6.61424C13.4577 6.53265 13.4365 6.45136 13.3914 6.38189C13.3461 6.31218 13.2791 6.25798 13.1999 6.22698C13.1175 6.19102 13.0252 6.18141 12.9367 6.19958C12.8488 6.21763 12.7692 6.26212 12.7095 6.32657C12.6027 6.42135 12.5025 6.52277 12.4096 6.63017L12.409 6.6309C12.3076 6.75221 12.2068 6.8759 12.1067 6.9988C12.0459 7.0735 11.9852 7.14804 11.9248 7.22142Z" fill="#3A3B7B"/>
</g>
<defs>
<clipPath id="clip0_212_1597">
<rect width="15.6917" height="9.68213" fill="white"/>
</clipPath>
</defs>
</svg>
