<svg width="19" height="11" viewBox="0 0 19 11" fill="none" xmlns="http://www.w3.org/2000/svg">
<g clip-path="url(#clip0_212_1593)">
<path d="M18.3612 3.56224C18.3631 3.54832 18.3631 3.53424 18.3612 3.52032C18.363 3.50898 18.363 3.49741 18.3612 3.48604L18.2252 2.50693C18.2056 2.38979 18.1531 2.2803 18.0737 2.19072L18.0503 2.16405L18.0076 2.12214L15.6526 0.133438L15.7187 0.198209C15.6646 0.134814 15.5968 0.0841056 15.5201 0.0498203C15.4435 0.0155349 15.3599 -0.0014565 15.2757 9.95134e-05H14.5606C14.4444 -0.00215898 14.3308 0.0340829 14.2381 0.102965C14.1408 0.0344978 14.0237 -0.00155869 13.9039 9.95134e-05H13.1889C13.0951 -0.00139213 13.0026 0.0214254 12.9207 0.0662486C12.8388 0.111072 12.7704 0.176309 12.7225 0.255353C12.6487 0.368251 12.6209 0.504275 12.6448 0.636331L12.7342 1.25351C12.675 1.2206 12.608 1.20353 12.5399 1.20399H9.0774C8.95317 1.20475 8.8318 1.24045 8.72764 1.30685C8.62693 1.36865 8.54608 1.45715 8.49449 1.5621L8.22634 1.33733C8.12081 1.2416 7.98151 1.18971 7.83774 1.19256H2.40502C2.28035 1.19479 2.15845 1.22893 2.0514 1.29161C1.90494 1.37565 1.79761 1.5123 1.75216 1.67259L0.0267483 7.33011C-0.00549049 7.42333 -0.0086619 7.52387 0.0176402 7.61887C0.0439424 7.71384 0.0985269 7.79903 0.174421 7.86348C0.194196 7.87991 0.21496 7.89518 0.236599 7.90918C0.236599 7.90918 0.201619 7.88632 0.182188 7.86729L2.53716 9.8598C2.63678 9.94971 2.76702 9.99997 2.90242 10.0007H8.37791C8.50296 9.99757 8.62494 9.96208 8.73155 9.89788C8.79184 9.86558 8.84578 9.82301 8.89087 9.77216L8.9103 9.74549L8.94139 9.7074L8.9647 9.66549L9.22119 9.88266C9.31938 9.969 9.4468 10.0165 9.5787 10.016H15.0658C15.1907 10.0119 15.3125 9.97651 15.4195 9.91313C15.4784 9.87885 15.532 9.83651 15.5788 9.78741L15.5982 9.76074L15.6293 9.72265C15.6458 9.69854 15.6602 9.67305 15.672 9.64643C15.6847 9.62334 15.6952 9.5991 15.7031 9.57406L17.277 4.40801V4.36229C17.2789 4.34456 17.2789 4.32668 17.277 4.30896V4.27468C17.2789 4.26331 17.2789 4.25174 17.277 4.24037C17.2788 4.21628 17.2788 4.19209 17.277 4.16798H17.7822C17.8261 4.17194 17.8704 4.17194 17.9143 4.16798H17.9493C17.9777 4.15967 18.0051 4.14815 18.0309 4.1337H18.0698L18.1397 4.08037L18.1708 4.0575L18.2252 3.98892V3.96608L18.2641 3.90131C18.2619 3.88871 18.2619 3.87581 18.2641 3.86322C18.262 3.85703 18.262 3.85035 18.2641 3.84416C18.2723 3.82183 18.2788 3.79889 18.2835 3.77558C18.2817 3.76807 18.2817 3.76023 18.2835 3.75272C18.2816 3.74137 18.2816 3.72978 18.2835 3.71844C18.2835 3.71844 18.3612 3.56985 18.3612 3.56224Z" fill="black"/>
<path d="M7.99703 1.62693C8.01767 1.64522 8.03208 1.66927 8.03832 1.69584C8.0446 1.7224 8.04238 1.75021 8.03202 1.77551L6.3105 7.42922C6.28882 7.49094 6.24447 7.54255 6.18614 7.574C6.13868 7.60512 6.08375 7.6235 6.0268 7.62733H0.555226C0.508498 7.62513 0.464229 7.60615 0.43087 7.574C0.411025 7.55599 0.397098 7.53261 0.390867 7.50684C0.384637 7.48105 0.386391 7.45403 0.395897 7.42922L2.12131 1.77551C2.14119 1.71301 2.18415 1.66002 2.24178 1.62693C2.29002 1.59804 2.3447 1.58105 2.40111 1.5774H7.87268C7.91904 1.57784 7.9635 1.59555 7.99703 1.62693ZM5.14077 6.2901L6.17059 2.91463H3.28714L2.2612 6.2901H5.14077ZM13.2199 1.68407C13.2386 1.70534 13.2619 1.72221 13.2882 1.73342C13.3144 1.74464 13.3429 1.74991 13.3715 1.74884H14.0826C14.1097 1.7491 14.1364 1.74259 14.1602 1.72993C14.184 1.71726 14.2041 1.69886 14.2186 1.67646C14.2313 1.65896 14.2402 1.63915 14.2449 1.6182C14.2495 1.59726 14.2499 1.57562 14.2458 1.55455L14.1059 0.548764C14.0926 0.502215 14.0687 0.459231 14.036 0.423041C14.0173 0.401772 13.994 0.384905 13.9678 0.373692C13.9415 0.362479 13.913 0.357211 13.8844 0.358275H13.1733C13.1462 0.358017 13.1195 0.364527 13.0957 0.377193C13.0719 0.389858 13.0518 0.40826 13.0373 0.430663C13.0101 0.483998 12.9984 0.518285 13.0101 0.548764L13.1539 1.55455C13.1612 1.60352 13.1844 1.6489 13.2199 1.68407ZM15.4777 0.541144C15.4644 0.494593 15.4405 0.451609 15.4078 0.415421C15.3899 0.39423 15.3672 0.377368 15.3416 0.366135C15.316 0.354904 15.2881 0.349606 15.2601 0.350655H14.5451C14.5184 0.349912 14.4921 0.356247 14.4688 0.368989C14.4456 0.381732 14.4263 0.400412 14.4129 0.423041C14.3871 0.45684 14.3759 0.499295 14.3819 0.541144L14.5256 1.54692C14.5347 1.59538 14.5576 1.64031 14.5917 1.67646C14.6107 1.69731 14.6341 1.71389 14.6603 1.72507C14.6864 1.73625 14.7147 1.74176 14.7432 1.74122H15.4583C15.4849 1.74156 15.511 1.73506 15.5342 1.72236C15.5574 1.70965 15.5768 1.6912 15.5904 1.66884C15.6039 1.65179 15.6134 1.63199 15.6181 1.6109C15.6228 1.5898 15.6226 1.56795 15.6176 1.54692L15.4777 0.541144ZM12.5943 2.06505L12.5243 1.56978H9.07737C9.02325 1.57271 8.97089 1.58981 8.9258 1.61931C8.89719 1.63461 8.87227 1.65582 8.85281 1.68147C8.83338 1.70712 8.81983 1.73661 8.81313 1.76789L8.52555 2.71271C8.51407 2.73632 8.51014 2.76281 8.5143 2.78865C8.51848 2.8145 8.53052 2.83848 8.54886 2.85749C8.58163 2.88769 8.6244 2.90529 8.66934 2.90702H12.8585L11.8287 6.28248H7.65118C7.59731 6.28369 7.54485 6.29951 7.49963 6.32818C7.44467 6.36241 7.40453 6.41532 7.38693 6.47677L7.09548 7.4216C7.08597 7.44584 7.08347 7.47218 7.08826 7.49773C7.09308 7.52329 7.10497 7.54703 7.12266 7.56636C7.15442 7.59859 7.19752 7.61767 7.24314 7.61969H12.7303C12.787 7.61491 12.8417 7.59661 12.8896 7.56636C12.947 7.53476 12.99 7.48305 13.0101 7.4216L14.5878 2.25554H12.8119C12.7837 2.25609 12.7557 2.25096 12.7297 2.24047C12.7036 2.22999 12.68 2.21437 12.6603 2.19458C12.6282 2.16003 12.6055 2.11811 12.5943 2.07267V2.06505Z" fill="white"/>
</g>
<defs>
<clipPath id="clip0_212_1593">
<rect width="18.3627" height="10.016" fill="white"/>
</clipPath>
</defs>
</svg>
