<svg width="18" height="7" viewBox="0 0 18 7" fill="none" xmlns="http://www.w3.org/2000/svg">
<g clip-path="url(#clip0_212_1617)">
<path d="M4.12096 0C3.44297 0 2.79275 0.26933 2.31334 0.748743L0.748743 2.31334C0.26933 2.79275 0 3.44297 0 4.12096C0 5.53281 1.14453 6.67733 2.55637 6.67733C3.23437 6.67733 3.88458 6.40799 4.36399 5.92858L5.44623 4.84634C5.44623 4.84632 5.44625 4.84636 5.44623 4.84634L8.59951 1.69306C8.82848 1.4641 9.13902 1.33547 9.46282 1.33547C10.0049 1.33547 10.4645 1.68879 10.6239 2.17772L11.619 1.18255C11.1651 0.471495 10.369 0 9.46282 0C8.78483 0 8.13461 0.26933 7.6552 0.748743L3.41968 4.98427C3.19072 5.21324 2.88018 5.34187 2.55637 5.34187C1.88208 5.34187 1.33547 4.79526 1.33547 4.12096C1.33547 3.79715 1.4641 3.48661 1.69306 3.25765L3.25765 1.69306C3.48661 1.4641 3.79715 1.33547 4.12096 1.33547C4.66309 1.33547 5.12267 1.6888 5.28201 2.17775L6.2772 1.18257C5.82321 0.471509 5.02716 0 4.12096 0Z" fill="#394149"/>
<path d="M8.76163 4.98427C8.53267 5.21324 8.22213 5.34187 7.89832 5.34187C7.35628 5.34187 6.89672 4.98863 6.73733 4.49979L5.74219 5.49493C6.1962 6.20589 6.99221 6.67733 7.89832 6.67733C8.57631 6.67733 9.22653 6.40799 9.70594 5.92858L13.9415 1.69306C14.1704 1.4641 14.481 1.33547 14.8048 1.33547C15.4791 1.33547 16.0257 1.88208 16.0257 2.55637C16.0257 2.88018 15.897 3.19072 15.6681 3.41968L14.1035 4.98427C13.8745 5.21324 13.564 5.34187 13.2402 5.34187C12.6981 5.34187 12.2385 4.98857 12.0792 4.49968L11.084 5.49484C11.538 6.20587 12.334 6.67733 13.2402 6.67733C13.9182 6.67733 14.5684 6.40799 15.0478 5.92858L16.6124 4.36399C17.0918 3.88458 17.3611 3.23437 17.3611 2.55637C17.3611 1.14453 16.2166 0 14.8048 0C14.1268 0 13.4766 0.26933 12.9972 0.748743L8.76163 4.98427Z" fill="#394149"/>
</g>
<defs>
<clipPath id="clip0_212_1617">
<rect width="17.3611" height="6.67733" fill="white"/>
</clipPath>
</defs>
</svg>
